<svg xmlns="http://www.w3.org/2000/svg" width="31" height="31" viewBox="0 0 31 31">
    <g fill="#2E2E34" fill-rule="nonzero" stroke="#FFF" stroke-width=".6">
        <path d="M15.809 30.617C7.639 30.617 1 23.979 1 15.809S7.638 1 15.809 1c8.17 0 14.808 6.638 14.808 14.809 0 8.17-6.638 14.808-14.808 14.808zm0-26.936C9.106 3.68 3.68 9.106 3.68 15.809c0 6.702 5.425 12.127 12.128 12.127 6.702 0 12.127-5.425 12.127-12.127 0-6.703-5.425-12.128-12.127-12.128z"/>
        <path d="M20.723 22.064c-.319 0-.702-.128-.957-.383l-4.915-4.915a1.299 1.299 0 0 1-.383-.957V6.553c0-.766.575-1.34 1.34-1.34.766 0 1.34.574 1.34 1.34v8.745l4.533 4.532c.51.51.51 1.34 0 1.915a1.72 1.72 0 0 1-.958.319z"/>
    </g>
</svg>
