<svg xmlns="http://www.w3.org/2000/svg" width="32" height="31" viewBox="0 0 32 31">
    <g fill="#2E2E34" fill-rule="nonzero" stroke="#2E2E34" stroke-width=".5">
        <path d="M10.341 1H21.66C26.796 1 31 5.214 31 10.367v10.774c0 5.153-4.204 9.367-9.341 9.367H10.34C5.204 30.508 1 26.294 1 21.141V10.367C1 5.214 5.204 1 10.341 1zM21.66 2.432H10.34c-4.35 0-7.912 3.571-7.912 7.935v10.774c0 4.364 3.562 7.935 7.912 7.935H21.66c4.35 0 7.912-3.571 7.912-7.935V10.367c0-4.364-3.562-7.935-7.912-7.935z"/>
        <path d="M16 6.811c3.323 0 5.025 4.733 2.715 7.552-2.351 2.872-6.491.899-6.491-3.097 0-2.27 1.537-4.455 3.776-4.455zm1.616 2.263c-1.496-1.827-3.963-.447-3.963 2.192 0 2.642 2.467 4.022 3.963 2.191.975-1.191.975-3.187 0-4.383zM16 24.693l-6.484-.015a.715.715 0 0 1-.712-.74c.202-6.12 2.696-6.304 5.449-7.26.885-.304 1.35 1.042.46 1.35-2.272.786-4.083.865-4.44 5.225 3.826.012 7.628.012 11.453 0-.356-4.36-2.167-4.44-4.44-5.225-.889-.308-.424-1.654.461-1.35 2.6.9 5.326 1.144 5.45 7.26a.712.712 0 0 1-.713.74L16 24.693z"/>
    </g>
</svg>
