<svg xmlns="http://www.w3.org/2000/svg" width="46" height="60" viewBox="0 0 46 60">
    <g fill="none" fill-rule="evenodd">
        <path fill="none" d="M-462-403H838v768H-462z"/>
        <path fill="#8E929B" fill-rule="nonzero" d="M1.222.244A1.348 1.348 0 0 0 0 1.592v5.394a1.348 1.348 0 1 0 2.697 0V2.94h1.348a1.348 1.348 0 1 0 0-2.697H1.348a1.348 1.348 0 0 0-.126 0zm7.416 0a1.35 1.35 0 1 0 .126 2.697h5.393a1.348 1.348 0 1 0 0-2.697H8.764a1.348 1.348 0 0 0-.126 0zm10.112 0a1.35 1.35 0 1 0 .126 2.697h5.394a1.348 1.348 0 1 0 0-2.697h-5.394a1.348 1.348 0 0 0-.126 0zm10.112 0a1.35 1.35 0 1 0 .127 2.697h5.52l2.296 2.296A1.348 1.348 0 1 0 38.7 3.32L36.004.623a1.348 1.348 0 0 0-.948-.379H28.99a1.348 1.348 0 0 0-.127 0zm4.698 5.372a1.348 1.348 0 0 0-1.2 1.37v5.393c0 .745.603 1.348 1.348 1.348H39.1a1.348 1.348 0 1 0 0-2.696h-4.045V6.986a1.348 1.348 0 0 0-1.496-1.37zm8.09 1.349a1.348 1.348 0 0 0-.8 2.317l2.296 2.296v5.52a1.348 1.348 0 1 0 2.697 0v-6.067a1.348 1.348 0 0 0-.4-.97l-2.697-2.696a1.348 1.348 0 0 0-1.096-.4zM1.2 10.335a1.348 1.348 0 0 0-1.2 1.37v5.393a1.348 1.348 0 1 0 2.697 0v-5.393a1.348 1.348 0 0 0-1.496-1.37zm0 10.113a1.348 1.348 0 0 0-1.2 1.37v5.392a1.348 1.348 0 1 0 2.697 0v-5.393a1.348 1.348 0 0 0-1.496-1.37zm43.147 0a1.348 1.348 0 0 0-1.2 1.37v5.392a1.348 1.348 0 1 0 2.696 0v-5.393a1.348 1.348 0 0 0-1.496-1.37zM1.2 30.56A1.348 1.348 0 0 0 0 31.93v5.393a1.348 1.348 0 1 0 2.697 0V31.93A1.348 1.348 0 0 0 1.2 30.56zm43.146 0a1.348 1.348 0 0 0-1.2 1.37v5.393a1.348 1.348 0 1 0 2.696 0V31.93a1.348 1.348 0 0 0-1.496-1.37zM1.2 40.673A1.348 1.348 0 0 0 0 42.042v5.393a1.348 1.348 0 1 0 2.697 0v-5.393a1.348 1.348 0 0 0-1.496-1.37zm43.146 0a1.348 1.348 0 0 0-1.2 1.369v5.393a1.348 1.348 0 1 0 2.696 0v-5.393a1.348 1.348 0 0 0-1.496-1.37zM1.2 50.785A1.348 1.348 0 0 0 0 52.155v6.067c0 .744.604 1.348 1.348 1.348h5.394a1.348 1.348 0 1 0 0-2.697H2.697v-4.719a1.348 1.348 0 0 0-1.496-1.37zm43.146 0a1.348 1.348 0 0 0-1.2 1.37v4.718h-1.35a1.348 1.348 0 1 0 0 2.697h2.697c.745 0 1.349-.604 1.349-1.348v-6.068a1.348 1.348 0 0 0-1.496-1.37zm-33.013 6.088a1.35 1.35 0 1 0 .127 2.697h5.393a1.348 1.348 0 1 0 0-2.697H11.46a1.348 1.348 0 0 0-.127 0zm10.113 0a1.35 1.35 0 1 0 .126 2.697h5.393a1.348 1.348 0 1 0 0-2.697h-5.393a1.348 1.348 0 0 0-.126 0zm10.112 0a1.35 1.35 0 1 0 .126 2.697h5.394a1.348 1.348 0 1 0 0-2.697h-5.394a1.348 1.348 0 0 0-.126 0z"/>
    </g>
</svg>
