<svg xmlns="http://www.w3.org/2000/svg" width="12" height="12" viewBox="0 0 12 12">
    <path fill="#8E929B" fill-rule="nonzero" d="M12 11.227L8.373 7.6a4.669 4.669 0 0 0 1.014-2.907 4.704 4.704 0 0 0-1.374-3.32A4.704 4.704 0 0 0 4.693 0a4.704 4.704 0 0 0-3.32 1.373 4.704 4.704 0 0 0 0 6.64 4.68 4.68 0 0 0 3.32 1.374c1.067 0 2.08-.36 2.907-1.014L11.227 12l.773-.773zM2.147 7.24a3.613 3.613 0 0 1 0-5.093 3.58 3.58 0 0 1 2.546-1.054c.96 0 1.867.374 2.547 1.054 1.4 1.4 1.4 3.693 0 5.093a3.58 3.58 0 0 1-2.547 1.053A3.58 3.58 0 0 1 2.147 7.24z"/>
</svg>
