<svg xmlns="http://www.w3.org/2000/svg" width="19" height="19" viewBox="0 0 19 19">
    <g fill="none" fill-rule="evenodd">
        <circle cx="9.5" cy="9.5" r="9.5" fill="#F0F0F7"/>
        <path fill="#B6BBC7" fill-rule="nonzero" d="M13.089 5.323a1.105 1.105 0 0 0-1.562 0l-5.683 5.66c-.022.022-.034.033-.045.055 0 0 0 .01-.01.01-.012.023-.023.034-.023.056v.011l-.753 2.454a.356.356 0 0 0 .077.332.32.32 0 0 0 .233.099c.033 0 .066 0 .1-.011l2.448-.752h.011c.022-.01.044-.01.055-.022 0 0 .012 0 .012-.01.022-.012.044-.023.055-.045l5.672-5.66a1.099 1.099 0 0 0 0-1.558l-.587-.619z"/>
    </g>
</svg>
